# xmcd
#
# Track frame offsets: 
#        150
#        7588
#        32561
#        50699
#        62559
#        80537
#        93299
#        109623
#        124458
#        139356
#        156246
#        184868
#        208279
#        230265
#        238665
#        256436
#        262868
#
# Disc length: 3704 seconds
#
# Revision: 0
# Processed by: cddbd v1.5.1PL0 Copyright (c) Steve Scherf et al.
# Submitted via: ExactAudioCopy v0.95a5
#
DISCID=e50e7611
DTITLE=Solomon Burke - 2004-07-09 Montreux D1
DYEAR=2004
DGENRE=Blues and Soul
TTITLE0=Radio DJ - Radio Intro
TTITLE1=Peach
TTITLE2=Nothin´ But The Blues
TTITLE3=Down In The Valley
TTITLE4=Diamond In Your Mind
TTITLE5=None Of Us Are Free
TTITLE6=A Change Is Gonna Come
TTITLE7=I Wish I Knew
TTITLE8=If I Had A Hammer
TTITLE9=Soul Searching
TTITLE10=Call Me
TTITLE11=Got To Get You Off My Mind > Havin´ A Party
TTITLE12=Sittin´ On The Dock Of The Bay > Spanish Harlem
TTITLE13=Fa-Fa-Fa (Sad Song)
TTITLE14=Barbara Marson - Van Morrison Medley
TTITLE15=Barbara Marson - Hit The Road Jack
TTITLE16=Band Introduction
EXTD=
EXTT0=
EXTT1=
EXTT2=
EXTT3=
EXTT4=
EXTT5=
EXTT6=
EXTT7=
EXTT8=
EXTT9=
EXTT10=
EXTT11=
EXTT12=
EXTT13=
EXTT14=
EXTT15=
EXTT16=
PLAYORDER=
